PathFileType	4	(X/Y/Z)	/Users/itak/Documents/Research/Walk-IL/dataset/trc/00546_00009.trc
DataRate	CameraRate	NumFrames	NumMarkers	Units	OrigDataRate	OrigDataStartFrame	OrigNumFrames
100.000000	100.000000	4	53	mm	100.000000	317	508
Frame#	Time	RPSI			LPSI			L3			STRN			T10			C7			CLAV			RBAK			LBAK			LSHO			LUPA			LAEL			LAOL			LWTS			LWPS			LFRA			LIFD			LHPS			LHTS			RSHO			RUPA			RAEL			RAOL			RWTS			RWPS			RFRA			RIFD			RHTS			RHPS			RBHD			LFHD			RFHD			LBHD			LHIP			RHIP			RASI			LASI			LKNE			LTHI			LANK			LTIP			LTOE			LMT1			LMT5			LHEE			RKNE			RTHI			RANK			RTIP			RTOE			RMT1			RMT5			RHEE			
		X1	Y1	Z1	X2	Y2	Z2	X3	Y3	Z3	X4	Y4	Z4	X5	Y5	Z5	X6	Y6	Z6	X7	Y7	Z7	X8	Y8	Z8	X9	Y9	Z9	X10	Y10	Z10	X11	Y11	Z11	X12	Y12	Z12	X13	Y13	Z13	X14	Y14	Z14	X15	Y15	Z15	X16	Y16	Z16	X17	Y17	Z17	X18	Y18	Z18	X19	Y19	Z19	X20	Y20	Z20	X21	Y21	Z21	X22	Y22	Z22	X23	Y23	Z23	X24	Y24	Z24	X25	Y25	Z25	X26	Y26	Z26	X27	Y27	Z27	X28	Y28	Z28	X29	Y29	Z29	X30	Y30	Z30	X31	Y31	Z31	X32	Y32	Z32	X33	Y33	Z33	X34	Y34	Z34	X35	Y35	Z35	X36	Y36	Z36	X37	Y37	Z37	X38	Y38	Z38	X39	Y39	Z39	X40	Y40	Z40	X41	Y41	Z41	X42	Y42	Z42	X43	Y43	Z43	X44	Y44	Z44	X45	Y45	Z45	X46	Y46	Z46	X47	Y47	Z47	X48	Y48	Z48	X49	Y49	Z49	X50	Y50	Z50	X51	Y51	Z51	X52	Y52	Z52	X53	Y53	Z53	

318	3.17	651.4259033203125	980.2122802734375	365.7630615234375	653.6296997070312	991.1007080078125	232.8974151611328	655.5360107421875	1084.341796875	290.5796508789062	892.2741088867188	1267.965209960938	292.6847839355469	649.8433837890625	1208.488647460938	282.5149230957031	704.3790893554688	1482.892211914062	295.5914611816406	875.9847412109375	1379.6083984375	295.8850402832031	625.4369506835938	1357.563720703125	374.5413818359375	673.80810546875	1430.611328125	201.3716888427734	777.6434936523438	1455.016235351562	128.9811096191406	788.4686279296875	1333.298583984375	44.86620712280273	864.44140625	1126.477661132812	19.63738632202148	774.5739135742188	1087.95947265625	50.25881576538086	1038.236572265625	950.6427001953125	103.0545959472656	1025.214721679688	909.9589233398438	26.8289794921875	919.7386474609375	1058.117919921875	23.32620620727539	1115.130493164062	799.6171264648438	115.7707748413086	1058.25830078125	861.01708984375	42.81691741943359	1092.017333984375	890.5302124023438	94.33618927001953	752.8822631835938	1443.571166992188	454.5376281738281	724.43115234375	1379.5751953125	517.9121704101562	688.9243774414062	1093.622924804688	561.7169189453125	636.4116821289062	1080.865600585938	527.0595703125	810.46484375	864.809814453125	543.9893188476562	755.5040893554688	848.5743408203125	602.6189575195312	693.129150390625	1037.79296875	571.078369140625	811.5556640625	692.15234375	550.342529296875	831.0276489257812	772.9847412109375	562.6954345703125	768.4461059570312	773.2926635742188	602.8693237304688	782.04443359375	1660.71728515625	371.5539245605469	939.7636108398438	1684.094116210938	237.3202209472656	921.2123413085938	1678.580932617188	381.0268859863281	809.9197998046875	1664.7783203125	208.953369140625	777.8726196289062	918.9396362304688	94.17682647705078	784.38232421875	915.26318359375	479.7092590332031	866.3612060546875	949.5630493164062	419.4716491699219	858.0982666015625	941.4605712890625	145.4402313232422	721.2421875	480.3303833007812	174.2003021240234	754.5300903320312	641.5531005859375	132.9749298095703	523.6317138671875	41.80500411987305	210.4488830566406	595.8622436523438	254.7618713378906	183.4191589355469	734.164306640625	39.84369277954102	267.8871154785156	661.456787109375	47.7264518737793	299.9919738769531	644.1954345703125	35.55826187133789	193.0910034179688	456.2596435546875	60.69750213623047	260.0421447753906	964.1361694335938	508.6358947753906	445.8380126953125	858.7011108398438	776.7783203125	487.28125	1076.299194335938	36.82630157470703	425.2495727539062	1019.381164550781	376.907958984375	436.6664428710938	1269.41357421875	136.4889373779297	406.6103820800781	1216.045288085938	113.9447937011719	359.3114318847656	1195.528442382812	82.79124450683594	456.4452514648438	1028.926513671875	20.84995651245117	364.3822021484375	
319	3.18	660.6646118164062	978.9491577148438	367.4927673339844	662.5074462890625	989.9949951171875	234.5792083740234	664.6519165039062	1082.947265625	292.102783203125	901.0745239257812	1266.765380859375	293.5223999023438	658.822998046875	1207.012939453125	283.8663635253906	712.8988037109375	1481.483032226562	296.8487548828125	884.6236572265625	1378.380615234375	296.8251342773438	634.2183837890625	1355.960693359375	375.8067016601562	682.2185668945312	1429.216064453125	202.6895294189453	785.9837036132812	1453.698608398438	130.0622406005859	796.7066650390625	1331.828247070312	46.10139083862305	872.604736328125	1124.918579101562	21.23015403747559	782.7173461914062	1086.52099609375	52.0254020690918	1046.369506835938	949.1320190429688	104.8556518554688	1033.222900390625	908.3270263671875	28.7529182434082	927.8504638671875	1056.540893554688	25.0127124786377	1123.141479492188	798.0728759765625	117.7760467529297	1066.30517578125	859.3941650390625	44.74965286254883	1100.099609375	888.9644165039062	96.19232940673828	761.3605346679688	1441.997192382812	455.5178527832031	733.2538452148438	1378.041870117188	519.0888061523438	697.2161254882812	1092.130981445312	562.6812133789062	644.810791015625	1079.5810546875	527.7863159179688	817.380615234375	862.4885864257812	545.6923828125	762.1173706054688	846.7301635742188	604.0772705078125	701.12451171875	1036.29736328125	572.0648803710938	817.1360473632812	689.8378295898438	552.1383056640625	837.1652221679688	770.62109375	564.4688720703125	774.4954833984375	771.3261108398438	604.4688110351562	790.302001953125	1659.36572265625	372.7640686035156	947.96337890625	1683.1123046875	238.5155944824219	929.4500122070312	1677.481689453125	382.1987609863281	818.137939453125	1663.595092773438	210.1713409423828	785.4986572265625	916.83447265625	93.44334411621094	794.16943359375	913.4948120117188	480.2338562011719	876.078125	948.1676025390625	419.9692687988281	865.5740356445312	939.431884765625	144.7150726318359	727.3831176757812	479.4856262207031	174.5141754150391	761.5077514648438	640.6649780273438	133.5749206542969	524.0469970703125	43.11930847167969	210.2979888916016	599.06982421875	255.4222106933594	183.5343627929688	734.3427734375	39.72506713867188	267.7921447753906	661.7322387695312	47.90488052368164	299.8255615234375	644.2738647460938	35.55983352661133	193.0587310791016	456.7080383300781	62.86833190917969	259.8944396972656	973.418701171875	507.0696411132812	444.695556640625	868.760498046875	775.173583984375	487.4779663085938	1083.2216796875	35.50725173950195	422.9067687988281	1028.268920898438	375.045654296875	434.9508361816406	1276.927490234375	133.3981018066406	403.0118408203125	1223.205688476562	111.0149765014648	355.9730529785156	1202.912475585938	80.24613189697266	453.2462158203125	1035.194213867188	19.96864891052246	362.4048461914062	
320	3.19	670.0775756835938	977.7615966796875	369.2790832519531	671.5505981445312	988.9378662109375	236.3058166503906	673.9164428710938	1081.590698242188	293.6845703125	909.9829711914062	1265.649658203125	294.4186706542969	667.9445190429688	1205.563598632812	285.2858276367188	721.4766235351562	1480.146484375	298.1727600097656	893.3401489257812	1377.24365234375	297.820556640625	643.0906372070312	1354.3876953125	377.1508178710938	690.6853637695312	1427.878173828125	204.0808410644531	794.3724365234375	1452.432983398438	131.2029266357422	804.982666015625	1330.403564453125	47.39239120483398	880.7421875	1123.36474609375	22.84987449645996	790.8308715820312	1085.146240234375	53.84685897827148	1054.348388671875	947.4340209960938	106.5797348022461	1040.999389648438	906.5433959960938	30.60894203186035	935.8871459960938	1054.9140625	26.68667221069336	1130.857177734375	796.2664794921875	119.6318511962891	1074.099853515625	857.5962524414062	46.55263519287109	1107.968994140625	887.166748046875	97.93119049072266	769.97119140625	1440.501220703125	456.599365234375	742.1943969726562	1376.549072265625	520.3382568359375	705.6782836914062	1090.683471679688	563.7294311523438	653.3867797851562	1078.33740234375	528.6033935546875	824.4710693359375	860.22607421875	547.4609375	768.8717651367188	844.9320068359375	605.61962890625	709.2870483398438	1034.855590820312	573.1384887695312	822.8038330078125	687.548583984375	553.9905395507812	843.3922119140625	768.2716064453125	566.2745361328125	780.6553344726562	769.3997802734375	606.1510009765625	798.62744140625	1658.104125976562	374.021728515625	956.2301025390625	1682.196166992188	239.7648010253906	937.7562866210938	1676.447631835938	383.4216003417969	826.4263305664062	1662.498413085938	211.4174957275391	793.516845703125	914.9619140625	93.06700897216797	804.1362915039062	911.6304321289062	480.7554931640625	885.9381713867188	946.8696899414062	420.5321044921875	873.4432373046875	937.6377563476562	144.3495635986328	733.7481079101562	478.6540222167969	174.8612823486328	768.7003173828125	639.7970581054688	134.2015380859375	524.5407104492188	44.62118148803711	210.0404205322266	602.443115234375	256.1832885742188	183.6558990478516	734.5203857421875	39.58939361572266	267.698486328125	662.0552368164062	48.15073776245117	299.6225280761719	644.3914184570312	35.56790161132812	193.0135345458984	457.2278747558594	65.27106475830078	259.6944580078125	982.8388061523438	505.54833984375	443.58935546875	879.026123046875	773.6809692382812	487.6192321777344	1088.614990234375	34.30855941772461	420.7462158203125	1037.011352539062	373.0945434570312	433.17578125	1283.52490234375	128.7352294921875	399.1506652832031	1229.281372070312	106.8041610717773	352.4237060546875	1209.079956054688	76.83298492431641	449.9287719726562	1039.794921875	19.42520141601562	360.6960144042969	
321	3.2	679.6641845703125	976.6992797851562	371.095703125	680.7703247070312	987.9561767578125	238.0506896972656	683.3154907226562	1080.297485351562	295.3075866699219	919.000732421875	1264.64697265625	295.3695068359375	677.2042846679688	1204.173950195312	286.7657470703125	730.1103515625	1478.911010742188	299.5617980957031	902.1317749023438	1376.226440429688	298.8738708496094	652.052001953125	1352.873413085938	378.5680236816406	699.2095336914062	1426.625122070312	205.5429840087891	802.80322265625	1451.248779296875	132.4030303955078	813.2898559570312	1329.050659179688	48.73915481567383	888.8561401367188	1121.841552734375	24.49601364135742	798.9197998046875	1083.858642578125	55.72196578979492	1062.162475585938	945.5643310546875	108.2204055786133	1048.539916992188	904.627685546875	32.3823356628418	943.8477783203125	1053.259887695312	28.3476676940918	1138.265991210938	794.2132568359375	121.3255615234375	1081.628051757812	855.6411743164062	48.21731567382812	1115.61328125	885.1522216796875	99.54894256591797	778.71875	1439.113403320312	457.7896728515625	751.2415771484375	1375.125122070312	521.6557006835938	714.323974609375	1089.303833007812	564.8592529296875	662.1480712890625	1077.153198242188	529.5119018554688	831.7482299804688	858.05419921875	549.292724609375	775.7803955078125	843.2011108398438	607.2362060546875	717.6355590820312	1033.4892578125	574.2974853515625	828.5736083984375	685.3159790039062	555.9010620117188	849.73193359375	765.9549560546875	568.1016845703125	786.9452514648438	767.5361938476562	607.908935546875	807.0270385742188	1656.966186523438	375.3290100097656	964.5695190429688	1681.3681640625	241.0677185058594	946.137939453125	1675.504760742188	384.6990661621094	834.791748046875	1661.521240234375	212.6946563720703	801.9283447265625	913.3038940429688	93.01465606689453	814.2564086914062	909.7337036132812	481.2694091796875	895.9307861328125	945.7115478515625	421.1582336425781	881.7099609375	936.0614624023438	144.31298828125	740.3388671875	477.8440856933594	175.2528686523438	776.1250610351562	638.9593505859375	134.8513031005859	525.1199340820312	46.31810760498047	209.6772766113281	605.987548828125	257.0623474121094	183.7776947021484	734.694091796875	39.44034957885742	267.6068725585938	662.4285278320312	48.47388458251953	299.3858337402344	644.5541381835938	35.58332443237305	192.9606170654297	457.8417663574219	67.93257904052734	259.426025390625	992.3715209960938	504.1307678222656	442.5279846191406	889.468505859375	772.3562622070312	487.7309265136719	1092.7412109375	33.39304351806641	418.8619079589844	1045.66943359375	371.172607421875	431.3767395019531	1289.468017578125	122.5558166503906	395.124267578125	1234.534912109375	101.4106979370117	348.769287109375	1214.301025390625	72.67701721191406	446.6010131835938	1043.052612304688	19.35798072814941	359.3151245117188	
